<?xml version="1.0" encoding="UTF-8"?>
<svg version="1.1" xmlns="http://www.w3.org/2000/svg" width="500" height="500">
<path d="M0 0 C0.51146961 15.19458168 -0.06727783 29.27410441 -4 44 C-4.27287842 45.03374756 -4.27287842 45.03374756 -4.55126953 46.08837891 C-10.38458491 67.37294254 -22.8998946 83.98610795 -41.89941406 95.11230469 C-45.55073885 97.17478427 -49.26163931 99.09943745 -53 101 C-52.23558594 101.12528076 -51.47117187 101.25056152 -50.68359375 101.37963867 C-22.1204628 106.11652975 -22.1204628 106.11652975 -9 111 C-7.97777344 111.36609375 -6.95554687 111.7321875 -5.90234375 112.109375 C6.65437025 116.94015298 17.7860744 124.32744863 28 133 C28.91523438 133.69480469 29.83046875 134.38960937 30.7734375 135.10546875 C31.50820313 135.73066406 32.24296875 136.35585937 33 137 C33 137.66 33 138.32 33 139 C33.99 139.33 34.98 139.66 36 140 C56.29979712 160.99276208 66.76156468 189.00672513 66.40283203 217.98828125 C65.33731615 251.94031266 48.72126094 282.30727351 24.45751953 305.47265625 C16.60021128 312.75225771 7.97706174 318.52479585 -1.23486328 323.95019531 C-2.78706321 324.8733571 -4.31560663 325.83605263 -5.83984375 326.8046875 C-6.61457031 327.28164063 -7.38929688 327.75859375 -8.1875 328.25 C-8.82042969 328.64703125 -9.45335937 329.0440625 -10.10546875 329.453125 C-13.01521314 330.29305121 -14.36345625 329.41997831 -17 328 C-19.05348859 326.39844838 -20.99540525 324.78770955 -22.9375 323.0625 C-28.34791972 318.35638127 -33.89472261 313.88192918 -39.59350586 309.52954102 C-43.89536274 306.20927453 -43.89536274 306.20927453 -45 304 C-44.34 304 -43.68 304 -43 304 C-43 303.34 -43 302.68 -43 302 C-41.99066406 301.43925781 -40.98132813 300.87851562 -39.94140625 300.30078125 C-36.12947433 298.12021483 -32.53435356 295.70286086 -28.9375 293.1875 C-27.54595605 292.22210376 -26.15400433 291.25729511 -24.76171875 290.29296875 C-24.00938965 289.77138184 -23.25706055 289.24979492 -22.48193359 288.71240234 C-16.79714965 284.79020339 -11.0769152 280.91943359 -5.36303711 277.03979492 C-4.01544312 276.12290894 -4.01544312 276.12290894 -2.640625 275.1875 C-1.84172852 274.64480469 -1.04283203 274.10210937 -0.21972656 273.54296875 C1.89197706 272.07508854 3.95333584 270.55691414 6 269 C4.42303937 262.95165733 1.17943635 258.10003515 -2.125 252.875 C-2.99753418 251.47918701 -2.99753418 251.47918701 -3.88769531 250.05517578 C-7.67883793 244.01521063 -11.55972287 238.04998155 -15.609375 232.1796875 C-17 230 -17 230 -18 227 C-16.5859375 224.6796875 -16.5859375 224.6796875 -14.375 221.875 C-13.97692139 221.36219482 -13.57884277 220.84938965 -13.16870117 220.32104492 C-12.27941615 219.17589898 -11.3858377 218.03407869 -10.48876953 216.89501953 C-7.73479752 213.38955369 -5.02490419 209.85016511 -2.3125 206.3125 C-1.47368286 205.22086548 -1.47368286 205.22086548 -0.61791992 204.10717773 C3.13406217 199.20108305 6.69372371 194.21932131 10 189 C3.58914985 191.00547314 -2.52442 193.42446922 -8.65234375 196.16796875 C-9.55134903 196.56647537 -10.45035431 196.96498199 -11.37660217 197.37556458 C-14.23196831 198.64234899 -17.08476585 199.9148013 -19.9375 201.1875 C-21.81558705 202.021863 -23.6938411 202.85585017 -25.57226562 203.68945312 C-29.26096097 205.3267512 -32.94727467 206.96926129 -36.63232422 208.61474609 C-40.1986408 210.20490648 -43.77308158 211.77418247 -47.35595703 213.32666016 C-48.19365128 213.69189285 -49.03134552 214.05712555 -49.89442444 214.4334259 C-51.47222964 215.12061366 -53.05224735 215.80275058 -54.63475037 216.47904968 C-58.5060795 217.93632613 -58.5060795 217.93632613 -61 221 C-60.0187926 223.208409 -60.0187926 223.208409 -58.4921875 225.671875 C-57.92330811 226.63649658 -57.35442871 227.60111816 -56.76831055 228.5949707 C-56.14351807 229.63613037 -55.51872559 230.67729004 -54.875 231.75 C-54.2456958 232.81371826 -53.6163916 233.87743652 -52.96801758 234.97338867 C-50.98633783 238.3202091 -48.99397511 241.66049301 -47 245 C-45.13524947 248.13374468 -43.27243081 251.26860789 -41.41259766 254.40527344 C-40.27906432 256.31556426 -39.14211995 258.22383591 -38.00146484 260.12988281 C-37.48922363 260.9906543 -36.97698242 261.85142578 -36.44921875 262.73828125 C-35.99893311 263.49149658 -35.54864746 264.24471191 -35.0847168 265.02075195 C-34 267 -34 267 -33 270 C-33.5669458 270.28085449 -34.1338916 270.56170898 -34.71801758 270.85107422 C-49.40314243 278.13527439 -63.96979456 285.60924772 -78.41015625 293.3671875 C-79.10181885 293.7381958 -79.79348145 294.1092041 -80.50610352 294.49145508 C-81.79566845 295.18416003 -83.08400584 295.87915722 -84.37084961 296.5769043 C-86.89861634 297.93696244 -89.26881184 299.08960395 -92 300 C-87.5621015 304.99029514 -82.27436916 308.1934259 -76.625 311.6875 C-74.64636029 312.92845245 -72.66849847 314.17064606 -70.69140625 315.4140625 C-69.72348145 316.0215332 -68.75555664 316.62900391 -67.75830078 317.25488281 C-63.9908787 319.6384492 -60.26782358 322.08377626 -56.5625 324.5625 C-55.99160645 324.94301514 -55.42071289 325.32353027 -54.83251953 325.71557617 C-50.83099278 328.39973031 -46.91102553 331.18663271 -43 334 C-44.875 338.75 -44.875 338.75 -46 341 C-76.60216744 351.39139019 -114.7906572 343.02850436 -143.04296875 329.5625 C-162.59686921 319.76089403 -179.44249581 304.16962976 -190 285 C-190.94939453 283.28876953 -190.94939453 283.28876953 -191.91796875 281.54296875 C-204.68612867 257.28618732 -208.65778297 228.54924857 -200.64160156 202.0234375 C-200.42987305 201.35570312 -200.21814453 200.68796875 -200 200 C-199.78569336 199.319375 -199.57138672 198.63875 -199.35058594 197.9375 C-192.93694718 178.22046208 -182.20700208 162.05844912 -168 147 C-167.2884375 146.21238281 -166.576875 145.42476562 -165.84375 144.61328125 C-153.25974015 131.23199681 -137.0220985 120.815854 -120 114 C-119.34 114 -118.68 114 -118 114 C-118.08743729 111.12361482 -118.1943735 108.25015438 -118.3125 105.375 C-118.33505859 104.56675781 -118.35761719 103.75851563 -118.38085938 102.92578125 C-118.60676382 97.87373641 -119.43402818 94.47153267 -122 90 C-122 89.34 -122 88.68 -122 88 C-131.03155515 83.29300058 -139.23893627 82.65638782 -149.3125 83 C-151.59982793 83.07671307 -153.88766549 83.13974802 -156.17578125 83.1875 C-157.17520752 83.22230469 -158.17463379 83.25710937 -159.2043457 83.29296875 C-162.53186548 82.94426351 -164.31986794 81.97009599 -167 80 C-169.34616999 76.63715635 -170.26882352 73.9875542 -170.0625 69.9375 C-169.39515354 66.41202323 -168.13555879 64.11183683 -165.12109375 61.96484375 C-151.70858049 55.86375577 -132.59862504 58.35197261 -119.00390625 63.03125 C-112.76009124 65.91450935 -107.89800946 70.23213089 -103 75 C-102.86013672 74.44763672 -102.72027344 73.89527344 -102.57617188 73.32617188 C-98.20428099 56.35873685 -92.99393349 41.14672464 -81 28 C-80.48308594 27.3915625 -79.96617187 26.783125 -79.43359375 26.15625 C-59.99110369 4.71591008 -27.38735641 -0.59038613 0 0 Z " fill="#FBFBFB" transform="translate(319,75)"/>
</svg>
